# Blender 5.1.1
# www.blender.org
mtllib granerin.mtl
o Cube
v 1.057375 4.288622 -2.477016
v 2.114751 3.216799 -2.477016
v 2.114751 3.216799 -2.718945
v 1.057375 4.288621 -2.718945
v 1.057375 4.288621 -2.718945
v 0.000000 4.878424 -2.477017
v 1.057375 4.288622 -2.477016
v 0.000000 4.878423 -2.718945
v 2.114751 3.216799 -2.477016
v 2.339276 2.992275 -2.477016
v 2.339276 2.992275 -2.718945
v 2.114751 3.216799 -2.718945
v -1.057375 3.976236 -2.477016
v -2.114751 2.904414 -2.477016
v -2.114751 2.904414 -2.718945
v -1.057375 3.976235 -2.718945
v 0.000000 4.566038 -2.477017
v -1.057375 3.976235 -2.718945
v 0.000000 4.566037 -2.718945
v -1.057375 3.976236 -2.477016
v -2.357001 2.992275 -2.718945
v -2.357001 2.579932 -2.477016
v -2.357001 2.992275 -2.477016
v -2.114751 3.216799 -2.477016
v -1.057375 4.288621 -2.718945
v -2.114751 3.216799 -2.718945
v -1.057375 4.288622 -2.477016
v -2.357001 2.992275 -2.718945
v -2.114751 2.904414 -2.718945
v -2.357001 2.579932 -2.718945
v -2.114751 3.216799 -2.718945
v -1.057375 4.288621 -2.718945
v -1.057375 3.976235 -2.718945
v 0.000000 4.566037 -2.718945
v 1.057375 4.288621 -2.718945
v 1.057375 3.976235 -2.718945
v 0.000000 4.878423 -2.718945
v 2.114751 3.216799 -2.718945
v 2.114751 2.904414 -2.718945
v 2.339276 2.992275 -2.718945
v 2.339276 2.579932 -2.718945
v -2.114751 3.216800 2.477016
v -2.357001 2.992276 2.477016
v -2.357001 2.992276 2.760493
v -2.114751 3.216800 2.760493
v 1.057375 3.976236 2.477016
v 2.114751 2.904414 2.477016
v 2.114751 2.904414 2.760493
v 1.057375 3.976236 2.760493
v -1.057375 4.288622 2.477016
v -2.114751 3.216800 2.477016
v -2.114751 3.216800 2.760493
v -1.057375 4.288622 2.760493
v -2.357001 2.579932 2.760493
v -2.357001 2.992276 2.760493
v -2.357001 2.992276 2.477016
v 0.000000 4.566038 2.760493
v -1.057375 3.976236 2.477016
v 0.000000 4.566038 2.477016
v -1.057375 3.976236 2.760493
v -1.057375 4.288622 2.760493
v 0.000000 4.878424 2.477016
v -1.057375 4.288622 2.477016
v -2.114751 2.904414 2.477016
v -1.057375 3.976236 2.760493
v -2.114751 2.904414 2.760493
v -1.057375 3.976236 2.477016
v 2.339276 2.992276 2.760493
v 2.339276 2.579932 2.477016
v 2.339276 2.992276 2.477016
v 2.339276 2.992276 2.760493
v 2.114751 2.904414 2.760493
v 2.339276 2.579932 2.760493
v -2.357001 2.992276 2.760493
v -2.357001 2.579932 2.760493
v -2.114751 2.904414 2.760493
v -2.114751 3.216800 2.760493
v -1.057375 3.976236 2.760493
v -1.057375 4.288622 2.760493
v 2.114751 3.216800 2.760493
v 1.057375 3.976236 2.760493
v 1.057375 4.288622 2.760493
v 0.000000 4.878424 2.760493
v 0.000000 4.566038 2.760493
v 2.339276 2.579932 -2.477016
v 2.114751 2.904414 2.477016
v 2.114751 2.904414 -2.477016
v 2.114751 3.216799 -2.477016
v 2.339276 2.992276 2.477016
v 2.339276 2.992275 -2.477016
v 2.114751 3.216800 2.477016
v 2.114751 3.216800 2.477016
v 1.057375 4.288622 2.760493
v 2.114751 3.216800 2.760493
v 1.057375 4.288622 2.477016
v 2.339276 2.579932 2.760493
v -2.114751 2.904414 -2.477016
v -2.357001 2.579932 2.477016
v -2.357001 2.579932 -2.477016
v -2.114751 2.904414 2.477016
v 2.339276 2.579932 -2.477016
v 2.114751 2.904414 -2.718945
v 2.339276 2.579932 -2.718945
v 2.114751 2.904414 -2.477016
v -2.357001 2.579932 2.477016
v -2.114751 2.904414 2.760493
v -2.357001 2.579932 2.760493
v -2.114751 2.904414 2.477016
v -2.357001 2.579932 -2.718945
v -2.357001 2.579932 2.477016
v 2.339276 2.579932 2.477016
v 2.339276 2.579932 2.760493
v 2.114751 2.904414 2.760493
v 2.114751 2.904414 -2.477016
v 1.057375 3.976235 -2.718945
v 2.114751 2.904414 -2.718945
v 1.057375 3.976236 -2.477016
v -2.114751 3.216800 2.477016
v -2.357001 2.992275 -2.477016
v -2.357001 2.992276 2.477016
v -2.114751 3.216799 -2.477016
v -2.114751 2.904414 -2.477016
v -2.357001 2.579932 -2.477016
v -2.357001 2.579932 -2.718945
v -2.114751 2.904414 -2.718945
v 2.114751 3.216799 -2.477016
v 1.057375 4.288622 2.477016
v 2.114751 3.216800 2.477016
v 1.057375 4.288622 -2.477016
v 0.000000 4.878424 2.760493
v 0.000000 4.878424 -2.477017
v -1.057375 4.288622 -2.477016
v 1.057375 4.288622 2.477016
v 0.000000 4.878424 2.760493
v 1.057375 4.288622 2.760493
v 0.000000 4.878424 2.477016
v -1.057375 4.288622 2.477016
v -1.057375 4.288622 -2.477016
v -2.114751 3.216800 2.477016
v -2.114751 3.216799 -2.477016
v 2.339276 2.992275 -2.477016
v 2.339276 2.579932 -2.477016
v 2.339276 2.579932 -2.718945
v 2.339276 2.992275 -2.718945
v 1.057375 3.976236 -2.477016
v 0.000000 4.566037 -2.718945
v 1.057375 3.976235 -2.718945
v 0.000000 4.566038 -2.477017
v 2.339276 2.992276 2.477016
v 2.114751 3.216800 2.760493
v 2.339276 2.992276 2.760493
v 2.114751 3.216800 2.477016
v 1.057375 3.976236 2.760493
v 0.000000 4.566038 2.477016
v 1.057375 3.976236 2.477016
v 0.000000 4.566038 2.760493
v 2.114751 2.904414 2.477016
v 1.057375 0.351854 2.477016
v 2.114751 0.351854 2.477016
v -2.114751 2.904414 -2.477016
v -1.057375 0.351853 -2.477016
v -2.114751 0.351853 -2.477016
v -2.114751 0.351854 2.477016
v -2.114751 0.351853 -2.477016
v -1.057375 0.351854 2.477016
v 1.057375 3.976236 2.477016
v 0.000000 0.351854 2.477016
v 0.000000 4.566038 2.477016
v -1.057375 3.976236 2.477016
v -1.057375 0.351854 2.477016
v 0.000000 0.351854 2.477016
v -1.057375 0.351853 -2.477016
v 0.000000 0.351853 -2.477016
v 1.057375 0.351854 2.477016
v -1.057375 3.976236 -2.477016
v 0.000000 0.351853 -2.477016
v 0.000000 4.566038 -2.477017
v 1.057375 3.976236 -2.477016
v 1.057375 0.351853 -2.477016
v 2.114751 2.904414 -2.477016
v 2.114751 0.351853 -2.477016
v 2.114751 0.351853 -2.477016
v 2.114751 2.904414 2.477016
v 2.114751 0.351854 2.477016
v 2.114751 2.904414 -2.477016
v 2.114751 0.351854 2.477016
v 1.057375 0.351853 -2.477016
v 2.114751 0.351853 -2.477016
v -2.114751 0.351854 2.477016
v -2.114751 2.904414 -2.477016
v -2.114751 0.351853 -2.477016
v -2.114751 2.904414 2.477016
v -2.114751 2.904414 2.477016
v -2.114751 0.351854 2.477016
v -2.114751 3.216799 -2.718945
v -2.357001 2.992275 -2.477016
v -2.114751 3.216799 -2.477016
v -2.357001 2.992275 -2.718945
v 0.000000 4.878423 -2.718945
v -1.057375 4.288622 -2.477016
v 0.000000 4.878424 -2.477017
v -1.057375 4.288621 -2.718945
vn 0.7119 0.7023 -0.0000
vn 0.4871 0.8733 -0.0000
vn 0.7071 0.7071 -0.0000
vn 0.7119 -0.7023 -0.0000
vn 0.4871 -0.8733 -0.0000
vn -1.0000 -0.0000 -0.0000
vn -0.7119 0.7023 -0.0000
vn -0.0000 -0.0000 -1.0000
vn -0.6798 0.7334 -0.0000
vn -0.7119 -0.7023 -0.0000
vn -0.4871 0.8733 -0.0000
vn 1.0000 -0.0000 -0.0000
vn -0.0000 -0.0000 1.0000
vn -0.8223 -0.5690 -0.0000
vn 0.8013 -0.5982 -0.0000
vn -0.4871 -0.8733 -0.0000
vn -0.0000 -1.0000 -0.0000
vt 0.687500 0.500000
vt 0.625000 0.500000
vt 0.750000 0.500000
vt 0.625000 0.312500
vt 0.625000 0.250000
vt 0.625000 0.375000
vt 0.625000 0.250000
vt 0.875000 0.500000
vt 0.812500 0.500000
vt 0.625000 0.437500
vt 0.625000 0.500000
vt 0.875000 0.750000
vt 0.888413 0.750000
vt 0.625000 0.812500
vt 0.625000 0.750000
vt 0.812500 0.750000
vt 0.625000 0.000000
vt 0.625000 0.000000
vt 0.625000 0.875000
vt 0.625000 0.937500
vt 0.750000 0.750000
vt 0.625000 1.000000
vt 0.625000 0.750000
vt 0.625000 1.014319
vt 0.687500 0.750000
vt 0.888413 0.500000
vt 0.375000 0.812500
vt 0.375000 0.750000
vt 0.375000 0.312500
vt 0.375000 0.250000
vt 0.125000 0.750000
vt 0.125000 0.500000
vt 0.187500 0.750000
vt 0.375000 0.875000
vt 0.375000 0.937500
vt 0.250000 0.750000
vt 0.187500 0.500000
vt 0.250000 0.500000
vt 0.312500 0.750000
vt 0.375000 0.375000
vt 0.375000 0.437500
vt 0.375000 0.500000
vt 0.312500 0.500000
vt 0.375000 0.000000
vt 0.375000 1.000000
s 0
usemtl Material.005
f 1/1/1 2/2/1 3/2/1
f 3/2/1 4/1/1 1/1/1
f 5/1/2 6/3/2 7/1/2
f 5/1/2 8/3/2 6/3/2
f 9/2/3 10/2/3 11/2/3
f 11/2/3 12/2/3 9/2/3
f 13/4/4 14/5/4 15/5/4
f 15/5/4 16/4/4 13/4/4
f 17/6/5 18/4/5 19/6/5
f 17/6/5 20/4/5 18/4/5
f 21/5/6 22/7/6 23/5/6
f 24/8/7 25/9/7 26/8/7
f 25/9/7 24/8/7 27/9/7
f 28/5/8 29/5/8 30/7/8
f 29/5/8 28/5/8 31/5/8
f 31/5/8 32/4/8 33/4/8
f 33/4/8 29/5/8 31/5/8
f 34/6/8 35/10/8 36/10/8
f 32/4/8 37/6/8 34/6/8
f 32/4/8 34/6/8 33/4/8
f 35/10/8 34/6/8 37/6/8
f 36/10/8 38/2/8 39/2/8
f 38/2/8 36/10/8 35/10/8
f 39/2/8 38/2/8 40/2/8
f 40/2/8 41/11/8 39/2/8
f 42/12/9 43/13/9 44/13/9
f 45/12/9 42/12/9 44/13/9
s 1
f 46/14/10 47/15/10 48/15/10
f 48/15/10 49/14/10 46/14/10
s 0
f 50/16/7 51/12/7 52/12/7
f 52/12/7 53/16/7 50/16/7
f 54/17/6 55/18/6 56/18/6
f 57/19/5 58/20/5 59/19/5
f 57/19/5 60/20/5 58/20/5
f 61/16/11 62/21/11 63/16/11
f 64/22/4 65/20/4 66/22/4
f 65/20/4 64/22/4 67/20/4
f 68/15/12 69/23/12 70/15/12
f 71/15/13 72/15/13 73/23/13
f 74/24/13 75/24/13 76/22/13
f 76/22/13 77/22/13 74/24/13
f 77/22/13 78/20/13 79/20/13
f 72/15/13 71/15/13 80/15/13
f 81/14/13 72/15/13 80/15/13
f 82/14/13 83/19/13 84/19/13
f 82/14/13 84/19/13 81/14/13
f 80/15/13 82/14/13 81/14/13
f 78/20/13 77/22/13 76/22/13
f 84/19/13 79/20/13 78/20/13
f 79/20/13 84/19/13 83/19/13
f 85/11/14 86/15/14 87/2/14
f 88/2/3 89/15/3 90/2/3
f 89/15/3 88/2/3 91/15/3
f 92/15/1 93/25/1 94/15/1
s 1
f 93/25/1 92/15/1 95/25/1
s 0
f 69/23/12 68/15/12 96/23/12
f 97/5/15 98/17/15 99/7/15
f 98/17/15 97/5/15 100/18/15
f 101/11/14 102/2/14 103/11/14
f 102/2/14 101/11/14 104/2/14
f 105/17/15 106/18/15 107/17/15
f 106/18/15 105/17/15 108/18/15
f 22/7/6 21/5/6 109/7/6
f 56/18/6 22/7/6 110/17/6
f 56/18/6 23/5/6 22/7/6
f 56/18/6 110/17/6 54/17/6
f 86/15/14 111/23/14 112/23/14
f 86/15/14 85/11/14 111/23/14
f 112/23/14 113/15/14 86/15/14
s 1
f 114/2/10 115/10/10 116/2/10
s 0
f 115/10/10 114/2/10 117/10/10
f 118/12/9 119/26/9 120/13/9
f 119/26/9 118/12/9 121/8/9
f 122/5/15 123/7/15 124/7/15
f 124/7/15 125/5/15 122/5/15
f 126/2/1 127/25/1 128/15/1
f 127/25/1 126/2/1 129/1/1
f 62/21/11 61/16/11 130/21/11
f 131/3/11 63/16/11 62/21/11
f 132/9/11 63/16/11 131/3/11
f 133/25/2 134/21/2 135/25/2
f 133/25/2 136/21/2 134/21/2
f 7/1/2 136/21/2 133/25/2
f 6/3/2 136/21/2 7/1/2
f 137/16/7 138/9/7 139/12/7
f 140/8/7 139/12/7 138/9/7
f 141/2/12 69/23/12 142/11/12
f 141/2/12 70/15/12 69/23/12
f 141/2/12 142/11/12 143/11/12
f 143/11/12 144/2/12 141/2/12
f 145/10/16 146/6/16 147/10/16
f 146/6/16 145/10/16 148/6/16
f 149/15/3 150/15/3 151/15/3
f 150/15/3 149/15/3 152/15/3
f 153/14/16 154/19/16 155/14/16
f 153/14/16 156/19/16 154/19/16
usemtl Material.004
f 157/15/13 158/27/13 159/28/13
f 160/5/8 161/29/8 162/30/8
f 163/31/17 164/32/17 165/33/17
f 158/27/13 157/15/13 166/14/13
f 167/34/13 166/14/13 168/19/13
f 167/34/13 169/20/13 170/35/13
f 167/34/13 168/19/13 169/20/13
f 166/14/13 167/34/13 158/27/13
f 171/36/17 172/37/17 173/38/17
f 171/36/17 173/38/17 174/39/17
f 165/33/17 164/32/17 172/37/17
f 165/33/17 172/37/17 171/36/17
f 161/29/8 160/5/8 175/4/8
f 176/40/8 177/6/8 178/10/8
f 176/40/8 178/10/8 179/41/8
f 176/40/8 175/4/8 177/6/8
f 175/4/8 176/40/8 161/29/8
f 179/41/8 178/10/8 180/2/8
f 179/41/8 180/2/8 181/42/8
f 182/42/12 183/15/12 184/28/12
f 183/15/12 182/42/12 185/2/12
f 186/28/17 187/43/17 188/42/17
f 174/39/17 173/38/17 187/43/17
f 174/39/17 187/43/17 186/28/17
f 189/44/6 190/5/6 191/30/6
f 190/5/6 189/44/6 192/18/6
f 170/35/13 193/22/13 194/45/13
f 170/35/13 169/20/13 193/22/13
usemtl Material.006
f 195/8/9 196/26/9 197/8/9
s 1
f 196/26/9 195/8/9 198/26/9
s 0
f 199/3/11 200/9/11 201/3/11
f 199/3/11 202/9/11 200/9/11
